<mxfile host="Electron" modified="2024-03-07T12:20:47.586Z" agent="Mozilla/5.0 (Windows NT 10.0; Win64; x64) AppleWebKit/537.36 (KHTML, like Gecko) draw.io/23.1.5 Chrome/120.0.6099.109 Electron/28.1.0 Safari/537.36" etag="CKGfPqhqZm-0Uxoug-y1" version="23.1.5" type="device">
  <diagram id="zPXHtk_9FjxvzYkn2TSz" name="Page-1">
    <mxGraphModel dx="2390" dy="1407" grid="1" gridSize="10" guides="1" tooltips="1" connect="1" arrows="1" fold="1" page="1" pageScale="1" pageWidth="1920" pageHeight="1200" math="0" shadow="0">
      <root>
        <mxCell id="0" />
        <mxCell id="1" parent="0" />
        <mxCell id="aIRI_vIsuFXnpEIf9x8U-76" value="" style="rounded=0;whiteSpace=wrap;html=1;fontSize=25;fillColor=#f5f5f5;fontColor=#333333;strokeColor=#666666;direction=east;strokeWidth=2;fontStyle=1" parent="1" vertex="1">
          <mxGeometry x="170" y="190" width="2020" height="1500" as="geometry" />
        </mxCell>
        <mxCell id="aIRI_vIsuFXnpEIf9x8U-71" value="" style="rounded=0;whiteSpace=wrap;html=1;strokeWidth=2;fontStyle=1" parent="1" vertex="1">
          <mxGeometry x="200" y="640" width="1960" height="290" as="geometry" />
        </mxCell>
        <mxCell id="aIRI_vIsuFXnpEIf9x8U-70" value="" style="rounded=0;whiteSpace=wrap;html=1;strokeWidth=2;fontStyle=1" parent="1" vertex="1">
          <mxGeometry x="200" y="250" width="1960" height="330" as="geometry" />
        </mxCell>
        <mxCell id="aIRI_vIsuFXnpEIf9x8U-69" value="" style="rounded=0;whiteSpace=wrap;html=1;strokeWidth=2;fontStyle=1" parent="1" vertex="1">
          <mxGeometry x="200" y="929.5" width="1960" height="530.5" as="geometry" />
        </mxCell>
        <mxCell id="aIRI_vIsuFXnpEIf9x8U-11" style="edgeStyle=orthogonalEdgeStyle;rounded=0;orthogonalLoop=1;jettySize=auto;html=1;exitX=0.5;exitY=1;exitDx=0;exitDy=0;strokeColor=#00CC00;strokeWidth=2;fontStyle=1" parent="1" source="aIRI_vIsuFXnpEIf9x8U-1" target="aIRI_vIsuFXnpEIf9x8U-2" edge="1">
          <mxGeometry relative="1" as="geometry" />
        </mxCell>
        <mxCell id="aIRI_vIsuFXnpEIf9x8U-1" value="INITIATE ONLINE APPLICATION&lt;br&gt;--------------------------&lt;br&gt;&lt;u&gt;A.1.4.1.B&lt;/u&gt;" style="rounded=0;whiteSpace=wrap;html=1;strokeWidth=2;fontStyle=1" parent="1" vertex="1">
          <mxGeometry x="320" y="400" width="120" height="60" as="geometry" />
        </mxCell>
        <mxCell id="aIRI_vIsuFXnpEIf9x8U-2" value="SELECTS &#39;APPLICATION FOR SELF&#39;" style="rounded=0;whiteSpace=wrap;html=1;strokeWidth=2;fontStyle=1" parent="1" vertex="1">
          <mxGeometry x="320" y="493" width="120" height="60" as="geometry" />
        </mxCell>
        <mxCell id="aIRI_vIsuFXnpEIf9x8U-13" style="edgeStyle=orthogonalEdgeStyle;rounded=0;orthogonalLoop=1;jettySize=auto;html=1;exitX=1;exitY=0.5;exitDx=0;exitDy=0;entryX=0;entryY=0.5;entryDx=0;entryDy=0;strokeColor=#00CC00;strokeWidth=2;fontStyle=1" parent="1" source="aIRI_vIsuFXnpEIf9x8U-2" target="YE8LFlgy794ClRxsJW_e-21" edge="1">
          <mxGeometry relative="1" as="geometry">
            <mxPoint x="640" y="380" as="targetPoint" />
            <Array as="points">
              <mxPoint x="450" y="523" />
              <mxPoint x="450" y="356" />
              <mxPoint x="475" y="356" />
            </Array>
            <mxPoint x="590" y="520" as="sourcePoint" />
          </mxGeometry>
        </mxCell>
        <mxCell id="aIRI_vIsuFXnpEIf9x8U-14" style="edgeStyle=orthogonalEdgeStyle;rounded=0;orthogonalLoop=1;jettySize=auto;html=1;exitX=0.5;exitY=1;exitDx=0;exitDy=0;entryX=0.5;entryY=0;entryDx=0;entryDy=0;strokeColor=#00CC00;strokeWidth=2;fontStyle=1" parent="1" source="YE8LFlgy794ClRxsJW_e-21" target="aIRI_vIsuFXnpEIf9x8U-5" edge="1">
          <mxGeometry relative="1" as="geometry">
            <mxPoint x="745" y="450" as="sourcePoint" />
          </mxGeometry>
        </mxCell>
        <mxCell id="zc2iOCzZUR6AQ1SUMBFo-105" style="edgeStyle=orthogonalEdgeStyle;rounded=0;orthogonalLoop=1;jettySize=auto;html=1;exitX=0.5;exitY=1;exitDx=0;exitDy=0;strokeColor=#00CC00;strokeWidth=2;fontStyle=1;" parent="1" source="aIRI_vIsuFXnpEIf9x8U-5" target="YE8LFlgy794ClRxsJW_e-22" edge="1">
          <mxGeometry relative="1" as="geometry" />
        </mxCell>
        <mxCell id="aIRI_vIsuFXnpEIf9x8U-5" value="REVIEWS APPLICATION AND CLICKS CONFIRM" style="rounded=0;whiteSpace=wrap;html=1;strokeWidth=2;fontStyle=1" parent="1" vertex="1">
          <mxGeometry x="510" y="464" width="120" height="66" as="geometry" />
        </mxCell>
        <mxCell id="aIRI_vIsuFXnpEIf9x8U-67" value="" style="edgeStyle=orthogonalEdgeStyle;rounded=0;orthogonalLoop=1;jettySize=auto;html=1;exitX=0.5;exitY=1;exitDx=0;exitDy=0;strokeColor=#FF0000;strokeWidth=2;fontStyle=1;horizontal=1;fontSize=13;verticalAlign=middle;entryX=0.345;entryY=-0.003;entryDx=0;entryDy=0;entryPerimeter=0;" parent="1" source="aIRI_vIsuFXnpEIf9x8U-7" target="zc2iOCzZUR6AQ1SUMBFo-234" edge="1">
          <mxGeometry x="-0.2737" y="20" relative="1" as="geometry">
            <mxPoint x="660" y="459.5" as="targetPoint" />
            <Array as="points" />
            <mxPoint as="offset" />
          </mxGeometry>
        </mxCell>
        <mxCell id="aIRI_vIsuFXnpEIf9x8U-7" value="IF APPLICANT&lt;br&gt;DETAILS IS UNIQUE" style="rounded=0;whiteSpace=wrap;html=1;strokeWidth=2;fontStyle=1;shape=rhombus;perimeter=rhombusPerimeter;fillColor=#fff2cc;strokeColor=#d6b656;" parent="1" vertex="1">
          <mxGeometry x="595" y="1000" width="140" height="110.5" as="geometry" />
        </mxCell>
        <mxCell id="aIRI_vIsuFXnpEIf9x8U-18" style="edgeStyle=orthogonalEdgeStyle;rounded=0;orthogonalLoop=1;jettySize=auto;html=1;exitX=0.5;exitY=1;exitDx=0;exitDy=0;entryX=0.5;entryY=0;entryDx=0;entryDy=0;strokeColor=#00CC00;strokeWidth=2;fontStyle=1" parent="1" source="aIRI_vIsuFXnpEIf9x8U-8" target="zc2iOCzZUR6AQ1SUMBFo-120" edge="1">
          <mxGeometry relative="1" as="geometry" />
        </mxCell>
        <mxCell id="zc2iOCzZUR6AQ1SUMBFo-237" style="edgeStyle=orthogonalEdgeStyle;rounded=0;orthogonalLoop=1;jettySize=auto;html=1;exitX=1;exitY=0.5;exitDx=0;exitDy=0;fontSize=13;verticalAlign=bottom;strokeColor=#FF0000;strokeWidth=2;fontStyle=1;" parent="1" source="aIRI_vIsuFXnpEIf9x8U-8" target="zc2iOCzZUR6AQ1SUMBFo-234" edge="1">
          <mxGeometry relative="1" as="geometry">
            <Array as="points">
              <mxPoint x="800" y="721" />
              <mxPoint x="800" y="1160" />
              <mxPoint x="750" y="1160" />
            </Array>
          </mxGeometry>
        </mxCell>
        <mxCell id="aIRI_vIsuFXnpEIf9x8U-8" value="IF ALL&lt;br&gt;MANDATORY FIELDS &lt;br&gt;FILLED" style="rounded=0;whiteSpace=wrap;html=1;strokeWidth=2;fontStyle=1;shape=rhombus;perimeter=rhombusPerimeter;" parent="1" vertex="1">
          <mxGeometry x="670" y="674.36" width="110" height="93.64" as="geometry" />
        </mxCell>
        <mxCell id="aIRI_vIsuFXnpEIf9x8U-17" style="edgeStyle=orthogonalEdgeStyle;rounded=0;orthogonalLoop=1;jettySize=auto;html=1;exitX=1;exitY=0.5;exitDx=0;exitDy=0;strokeColor=#00CC00;strokeWidth=2;fontStyle=1" parent="1" source="YE8LFlgy794ClRxsJW_e-22" target="aIRI_vIsuFXnpEIf9x8U-8" edge="1">
          <mxGeometry relative="1" as="geometry">
            <mxPoint x="620" y="705.5000000000002" as="sourcePoint" />
          </mxGeometry>
        </mxCell>
        <mxCell id="aIRI_vIsuFXnpEIf9x8U-23" style="edgeStyle=orthogonalEdgeStyle;rounded=0;orthogonalLoop=1;jettySize=auto;html=1;exitX=0.5;exitY=0;exitDx=0;exitDy=0;strokeColor=#00CC00;strokeWidth=2;fontStyle=1" parent="1" source="aIRI_vIsuFXnpEIf9x8U-21" target="aIRI_vIsuFXnpEIf9x8U-22" edge="1">
          <mxGeometry relative="1" as="geometry" />
        </mxCell>
        <mxCell id="aIRI_vIsuFXnpEIf9x8U-21" value="REQUEST UPLOAD OF EVIDENCE DOCUMENTS" style="rounded=0;whiteSpace=wrap;html=1;strokeWidth=2;fontStyle=1" parent="1" vertex="1">
          <mxGeometry x="850" y="959" width="120" height="60" as="geometry" />
        </mxCell>
        <mxCell id="aIRI_vIsuFXnpEIf9x8U-41" style="edgeStyle=orthogonalEdgeStyle;rounded=0;orthogonalLoop=1;jettySize=auto;html=1;exitX=1;exitY=0.75;exitDx=0;exitDy=0;entryX=0.5;entryY=0;entryDx=0;entryDy=0;strokeColor=#00CC00;strokeWidth=2;fontStyle=1" parent="1" source="aIRI_vIsuFXnpEIf9x8U-22" target="aIRI_vIsuFXnpEIf9x8U-33" edge="1">
          <mxGeometry relative="1" as="geometry">
            <Array as="points">
              <mxPoint x="985" y="541" />
            </Array>
          </mxGeometry>
        </mxCell>
        <mxCell id="aIRI_vIsuFXnpEIf9x8U-22" value="UPLOADS SUPPORTING DOCUMENTS*" style="rounded=0;whiteSpace=wrap;html=1;strokeWidth=2;fontStyle=1;shape=parallelogram;perimeter=parallelogramPerimeter;fixedSize=1;" parent="1" vertex="1">
          <mxGeometry x="850" y="500" width="120" height="60" as="geometry" />
        </mxCell>
        <mxCell id="aIRI_vIsuFXnpEIf9x8U-44" style="edgeStyle=orthogonalEdgeStyle;rounded=0;orthogonalLoop=1;jettySize=auto;html=1;exitX=1;exitY=0.5;exitDx=0;exitDy=0;entryX=0;entryY=0.5;entryDx=0;entryDy=0;strokeColor=#00CC00;strokeWidth=2;fontStyle=1" parent="1" source="aIRI_vIsuFXnpEIf9x8U-24" target="aIRI_vIsuFXnpEIf9x8U-28" edge="1">
          <mxGeometry relative="1" as="geometry" />
        </mxCell>
        <mxCell id="esXk-Kw5jAamJm5AIrNX-10" style="edgeStyle=orthogonalEdgeStyle;rounded=0;orthogonalLoop=1;jettySize=auto;html=1;exitX=0.5;exitY=0;exitDx=0;exitDy=0;entryX=0;entryY=0.5;entryDx=0;entryDy=0;strokeColor=#FF0000;strokeWidth=2;fontStyle=1;" parent="1" source="aIRI_vIsuFXnpEIf9x8U-24" target="YE8LFlgy794ClRxsJW_e-30" edge="1">
          <mxGeometry relative="1" as="geometry">
            <mxPoint x="1210" y="400" as="targetPoint" />
          </mxGeometry>
        </mxCell>
        <mxCell id="aIRI_vIsuFXnpEIf9x8U-24" value="IF &lt;br&gt;ACCEPT T&amp;amp;C &lt;br&gt;AND ALLOW CAMERA &lt;br&gt;ACCESS" style="rounded=0;whiteSpace=wrap;html=1;strokeWidth=2;fontStyle=1;shape=rhombus;perimeter=rhombusPerimeter;" parent="1" vertex="1">
          <mxGeometry x="1150" y="430" width="120" height="101" as="geometry" />
        </mxCell>
        <mxCell id="zc2iOCzZUR6AQ1SUMBFo-258" style="edgeStyle=orthogonalEdgeStyle;rounded=0;orthogonalLoop=1;jettySize=auto;html=1;exitX=0.5;exitY=1;exitDx=0;exitDy=0;strokeColor=#00CC00;strokeWidth=2;fontStyle=1;" parent="1" source="aIRI_vIsuFXnpEIf9x8U-28" target="YE8LFlgy794ClRxsJW_e-14" edge="1">
          <mxGeometry relative="1" as="geometry" />
        </mxCell>
        <mxCell id="aIRI_vIsuFXnpEIf9x8U-28" value="CLICKS START TO CAPTURE FACE FOR LIVENESS CHECK" style="rounded=0;whiteSpace=wrap;html=1;strokeWidth=2;fontStyle=1" parent="1" vertex="1">
          <mxGeometry x="1300" y="454.5" width="130" height="52.5" as="geometry" />
        </mxCell>
        <mxCell id="aIRI_vIsuFXnpEIf9x8U-29" value="RECEIVES APPOINTMENT CONFIRMATION LETTER ON EMAIL" style="rounded=0;whiteSpace=wrap;html=1;strokeWidth=2;fontStyle=1" parent="1" vertex="1">
          <mxGeometry x="1860" y="490" width="120" height="60" as="geometry" />
        </mxCell>
        <mxCell id="aIRI_vIsuFXnpEIf9x8U-51" style="edgeStyle=orthogonalEdgeStyle;rounded=0;orthogonalLoop=1;jettySize=auto;html=1;exitX=0.5;exitY=1;exitDx=0;exitDy=0;entryX=0.5;entryY=0;entryDx=0;entryDy=0;strokeColor=#00CC00;strokeWidth=2;fontStyle=1" parent="1" source="aIRI_vIsuFXnpEIf9x8U-30" target="YE8LFlgy794ClRxsJW_e-3" edge="1">
          <mxGeometry relative="1" as="geometry">
            <Array as="points">
              <mxPoint x="1780" y="970" />
              <mxPoint x="1780" y="970" />
            </Array>
          </mxGeometry>
        </mxCell>
        <mxCell id="aIRI_vIsuFXnpEIf9x8U-30" value="SELECT APPOINTMENT CENTER &amp;amp; TIME" style="rounded=0;whiteSpace=wrap;html=1;strokeWidth=2;fontStyle=1" parent="1" vertex="1">
          <mxGeometry x="1720" y="490" width="120" height="60" as="geometry" />
        </mxCell>
        <mxCell id="aIRI_vIsuFXnpEIf9x8U-43" style="edgeStyle=orthogonalEdgeStyle;rounded=0;orthogonalLoop=1;jettySize=auto;html=1;exitX=0.5;exitY=0;exitDx=0;exitDy=0;strokeColor=#00CC00;strokeWidth=2;fontStyle=1;entryX=0.5;entryY=1;entryDx=0;entryDy=0;" parent="1" source="aIRI_vIsuFXnpEIf9x8U-32" target="aIRI_vIsuFXnpEIf9x8U-24" edge="1">
          <mxGeometry relative="1" as="geometry">
            <Array as="points">
              <mxPoint x="1210" y="540" />
            </Array>
            <mxPoint x="1360" y="550" as="targetPoint" />
          </mxGeometry>
        </mxCell>
        <mxCell id="aIRI_vIsuFXnpEIf9x8U-32" value="PROMPTS LIVENESS TEST" style="rounded=0;whiteSpace=wrap;html=1;strokeWidth=2;fontStyle=1" parent="1" vertex="1">
          <mxGeometry x="1150" y="996.5" width="120" height="60" as="geometry" />
        </mxCell>
        <mxCell id="aIRI_vIsuFXnpEIf9x8U-42" value="RESET &lt;br&gt;COUNTER" style="edgeStyle=orthogonalEdgeStyle;rounded=0;orthogonalLoop=1;jettySize=auto;html=1;exitX=0.5;exitY=1;exitDx=0;exitDy=0;strokeColor=#00CC00;strokeWidth=2;fontStyle=1;" parent="1" source="zc2iOCzZUR6AQ1SUMBFo-246" target="YE8LFlgy794ClRxsJW_e-5" edge="1">
          <mxGeometry x="0.3634" relative="1" as="geometry">
            <mxPoint x="1220" y="995.5" as="targetPoint" />
            <mxPoint as="offset" />
          </mxGeometry>
        </mxCell>
        <mxCell id="UAO9R_f0loXvIO0vCy_z-2" style="edgeStyle=orthogonalEdgeStyle;rounded=0;orthogonalLoop=1;jettySize=auto;html=1;exitX=0.5;exitY=1;exitDx=0;exitDy=0;entryX=0.5;entryY=0;entryDx=0;entryDy=0;strokeColor=#00CC00;strokeWidth=2;fontStyle=1;" parent="1" source="aIRI_vIsuFXnpEIf9x8U-33" target="zc2iOCzZUR6AQ1SUMBFo-246" edge="1">
          <mxGeometry relative="1" as="geometry" />
        </mxCell>
        <mxCell id="aIRI_vIsuFXnpEIf9x8U-33" value="IF FILE&lt;br&gt;SIZE &amp;amp; FORMAT ACCEPTED" style="rounded=0;whiteSpace=wrap;html=1;strokeWidth=2;fontStyle=1;shape=rhombus;perimeter=rhombusPerimeter;" parent="1" vertex="1">
          <mxGeometry x="925" y="661" width="120" height="84" as="geometry" />
        </mxCell>
        <mxCell id="aIRI_vIsuFXnpEIf9x8U-52" style="edgeStyle=orthogonalEdgeStyle;rounded=0;orthogonalLoop=1;jettySize=auto;html=1;exitX=1;exitY=0.5;exitDx=0;exitDy=0;strokeColor=#00CC00;strokeWidth=2;fontStyle=1" parent="1" source="aIRI_vIsuFXnpEIf9x8U-29" target="zc2iOCzZUR6AQ1SUMBFo-163" edge="1">
          <mxGeometry relative="1" as="geometry">
            <mxPoint x="2080" y="1235.5" as="targetPoint" />
          </mxGeometry>
        </mxCell>
        <mxCell id="aIRI_vIsuFXnpEIf9x8U-56" style="edgeStyle=orthogonalEdgeStyle;rounded=0;orthogonalLoop=1;jettySize=auto;html=1;exitX=1;exitY=0;exitDx=0;exitDy=40;entryX=0.5;entryY=1;entryDx=0;entryDy=0;strokeColor=#00CC00;strokeWidth=2;fontStyle=1;exitPerimeter=0;" parent="1" source="YE8LFlgy794ClRxsJW_e-5" target="aIRI_vIsuFXnpEIf9x8U-32" edge="1">
          <mxGeometry relative="1" as="geometry">
            <mxPoint x="1300" y="1015.5" as="sourcePoint" />
          </mxGeometry>
        </mxCell>
        <mxCell id="aIRI_vIsuFXnpEIf9x8U-62" value="APPLICANT" style="text;html=1;align=center;verticalAlign=middle;resizable=0;points=[];autosize=1;strokeColor=none;fillColor=none;fontSize=25;fontStyle=1;strokeWidth=2;horizontal=0;" parent="1" vertex="1">
          <mxGeometry x="140" y="384.5" width="160" height="40" as="geometry" />
        </mxCell>
        <mxCell id="aIRI_vIsuFXnpEIf9x8U-72" value="OB.1.2" style="text;html=1;align=center;verticalAlign=middle;resizable=0;points=[];autosize=1;strokeColor=none;fillColor=none;fontSize=34;fontStyle=1" parent="1" vertex="1">
          <mxGeometry x="1115" y="200" width="130" height="50" as="geometry" />
        </mxCell>
        <mxCell id="aIRI_vIsuFXnpEIf9x8U-73" value="ONLINE APPLICATION: SELF-INITIATED" style="text;html=1;align=center;verticalAlign=middle;resizable=0;points=[];autosize=1;strokeColor=none;fillColor=none;fontSize=34;fontStyle=1" parent="1" vertex="1">
          <mxGeometry x="1490" y="200" width="670" height="50" as="geometry" />
        </mxCell>
        <mxCell id="aIRI_vIsuFXnpEIf9x8U-74" value="A" style="ellipse;whiteSpace=wrap;html=1;aspect=fixed;fontSize=28;fontColor=default;strokeWidth=2;fontStyle=1" parent="1" vertex="1">
          <mxGeometry x="200" y="205" width="40" height="40" as="geometry" />
        </mxCell>
        <mxCell id="YE8LFlgy794ClRxsJW_e-4" value="RESET COUNTER" style="edgeStyle=orthogonalEdgeStyle;rounded=0;orthogonalLoop=1;jettySize=auto;html=1;exitX=1;exitY=0.5;exitDx=0;exitDy=0;entryX=0.5;entryY=1;entryDx=0;entryDy=0;strokeColor=#00CC00;strokeWidth=2;fontStyle=1;" parent="1" source="YE8LFlgy794ClRxsJW_e-3" target="aIRI_vIsuFXnpEIf9x8U-29" edge="1">
          <mxGeometry x="-0.6585" relative="1" as="geometry">
            <mxPoint x="1890" y="1045" as="targetPoint" />
            <mxPoint as="offset" />
          </mxGeometry>
        </mxCell>
        <mxCell id="YE8LFlgy794ClRxsJW_e-3" value="CHECK SLOT AVAILABILITY AND BLOCKS APPOINTMENT" style="rounded=0;whiteSpace=wrap;html=1;strokeWidth=2;fontStyle=1" parent="1" vertex="1">
          <mxGeometry x="1720" y="1055.5" width="120" height="60" as="geometry" />
        </mxCell>
        <mxCell id="YE8LFlgy794ClRxsJW_e-18" style="edgeStyle=orthogonalEdgeStyle;rounded=0;orthogonalLoop=1;jettySize=auto;html=1;exitX=0.5;exitY=1;exitDx=0;exitDy=0;exitPerimeter=0;entryX=0.5;entryY=0;entryDx=0;entryDy=0;strokeColor=#00CC00;strokeWidth=2;fontStyle=1;" parent="1" source="YE8LFlgy794ClRxsJW_e-7" target="aIRI_vIsuFXnpEIf9x8U-1" edge="1">
          <mxGeometry relative="1" as="geometry" />
        </mxCell>
        <mxCell id="YE8LFlgy794ClRxsJW_e-7" value="&lt;b&gt;START&lt;/b&gt;" style="strokeWidth=2;html=1;shape=mxgraph.flowchart.terminator;whiteSpace=wrap;fillColor=#d5e8d4;strokeColor=#82b366;" parent="1" vertex="1">
          <mxGeometry x="330" y="310" width="100" height="40" as="geometry" />
        </mxCell>
        <mxCell id="zc2iOCzZUR6AQ1SUMBFo-284" style="edgeStyle=orthogonalEdgeStyle;rounded=0;orthogonalLoop=1;jettySize=auto;html=1;exitX=0.5;exitY=0;exitDx=0;exitDy=0;exitPerimeter=0;entryX=0.5;entryY=1;entryDx=0;entryDy=0;strokeColor=#00CC00;strokeWidth=2;fontStyle=1;jumpStyle=arc;jumpSize=12;" parent="1" source="YE8LFlgy794ClRxsJW_e-9" target="zc2iOCzZUR6AQ1SUMBFo-283" edge="1">
          <mxGeometry relative="1" as="geometry" />
        </mxCell>
        <mxCell id="YE8LFlgy794ClRxsJW_e-9" value="&lt;span style=&quot;border-color: var(--border-color);&quot;&gt;&lt;b&gt;TERMINATE PROCESS:&lt;br&gt;&lt;/b&gt;&lt;/span&gt;WITH ERROR MESSAGE" style="strokeWidth=2;html=1;shape=mxgraph.flowchart.terminator;whiteSpace=wrap;fillColor=#f8cecc;strokeColor=#b85450;" parent="1" vertex="1">
          <mxGeometry x="1910" y="1350" width="160" height="60" as="geometry" />
        </mxCell>
        <mxCell id="zc2iOCzZUR6AQ1SUMBFo-260" style="edgeStyle=orthogonalEdgeStyle;rounded=0;orthogonalLoop=1;jettySize=auto;html=1;exitX=0.5;exitY=1;exitDx=0;exitDy=0;fontSize=13;verticalAlign=bottom;strokeColor=#FF0000;strokeWidth=2;fontStyle=1;" parent="1" source="YE8LFlgy794ClRxsJW_e-14" target="zc2iOCzZUR6AQ1SUMBFo-255" edge="1">
          <mxGeometry relative="1" as="geometry">
            <Array as="points" />
          </mxGeometry>
        </mxCell>
        <mxCell id="YE8LFlgy794ClRxsJW_e-14" value="IF &lt;br&gt;IMAGE QUALITY** ACCEPTED" style="rounded=0;whiteSpace=wrap;html=1;strokeWidth=2;fontStyle=1;shape=rhombus;perimeter=rhombusPerimeter;" parent="1" vertex="1">
          <mxGeometry x="1310" y="690" width="110" height="100" as="geometry" />
        </mxCell>
        <mxCell id="YE8LFlgy794ClRxsJW_e-21" value="&lt;u&gt;FILL APPLICATION&amp;nbsp;&lt;/u&gt;&lt;u style=&quot;border-color: var(--border-color);&quot;&gt;FORM&amp;nbsp;&lt;/u&gt;:&lt;br style=&quot;border-color: var(--border-color); font-weight: 700;&quot;&gt;&lt;span style=&quot;font-weight: 700;&quot;&gt;GIVEN NAME&lt;/span&gt;&lt;br style=&quot;border-color: var(--border-color); font-weight: 700;&quot;&gt;&lt;span style=&quot;font-weight: 700;&quot;&gt;FAMILY NAME&lt;/span&gt;&lt;br style=&quot;border-color: var(--border-color); font-weight: 700;&quot;&gt;&lt;span style=&quot;font-weight: 700;&quot;&gt;DOB&lt;/span&gt;&lt;br style=&quot;border-color: var(--border-color); font-weight: 700;&quot;&gt;&lt;span style=&quot;font-weight: 700;&quot;&gt;ADDRESS&lt;/span&gt;&lt;br style=&quot;border-color: var(--border-color); font-weight: 700;&quot;&gt;&lt;span style=&quot;font-weight: 700;&quot;&gt;DETAILS OF POI, POA&lt;/span&gt;&lt;br style=&quot;border-color: var(--border-color); font-weight: 700;&quot;&gt;&lt;span style=&quot;font-weight: 700;&quot;&gt;SHARE CODE&lt;/span&gt;&lt;br style=&quot;border-color: var(--border-color); font-weight: 700;&quot;&gt;&lt;span style=&quot;font-weight: 700;&quot;&gt;EMAIL&lt;/span&gt;&lt;br style=&quot;border-color: var(--border-color); font-weight: 700;&quot;&gt;&lt;span style=&quot;font-weight: 700;&quot;&gt;PHONE NUMBER&lt;/span&gt;" style="shape=parallelogram;perimeter=parallelogramPerimeter;whiteSpace=wrap;html=1;fixedSize=1;align=center;rounded=0;strokeWidth=2;fontStyle=1;verticalAlign=middle;" parent="1" vertex="1">
          <mxGeometry x="465" y="280.5" width="210" height="150" as="geometry" />
        </mxCell>
        <mxCell id="YE8LFlgy794ClRxsJW_e-23" style="edgeStyle=orthogonalEdgeStyle;rounded=0;orthogonalLoop=1;jettySize=auto;html=1;exitX=0.5;exitY=1;exitDx=0;exitDy=0;fontSize=13;verticalAlign=bottom;strokeColor=#FF0000;strokeWidth=2;fontStyle=1;entryX=0.162;entryY=-0.054;entryDx=0;entryDy=0;entryPerimeter=0;" parent="1" source="YE8LFlgy794ClRxsJW_e-22" target="zc2iOCzZUR6AQ1SUMBFo-234" edge="1">
          <mxGeometry relative="1" as="geometry">
            <Array as="points">
              <mxPoint x="570" y="1160" />
              <mxPoint x="627" y="1160" />
              <mxPoint x="627" y="1178" />
            </Array>
          </mxGeometry>
        </mxCell>
        <mxCell id="YE8LFlgy794ClRxsJW_e-22" value="IF &lt;br&gt;APPLICANTS AGE&amp;gt;16" style="rhombus;whiteSpace=wrap;html=1;rounded=0;strokeWidth=2;fontStyle=1;" parent="1" vertex="1">
          <mxGeometry x="515" y="678.61" width="110" height="85.5" as="geometry" />
        </mxCell>
        <mxCell id="zc2iOCzZUR6AQ1SUMBFo-286" style="edgeStyle=orthogonalEdgeStyle;rounded=0;orthogonalLoop=1;jettySize=auto;html=1;exitX=1;exitY=0.5;exitDx=0;exitDy=0;fontSize=11;fillColor=default;strokeWidth=2;fontStyle=1;strokeColor=#00CC00;" parent="1" source="YE8LFlgy794ClRxsJW_e-26" target="zc2iOCzZUR6AQ1SUMBFo-163" edge="1">
          <mxGeometry relative="1" as="geometry" />
        </mxCell>
        <mxCell id="YE8LFlgy794ClRxsJW_e-26" value="PROCEED TO OFFLINE APPLICATION FOR SELF&lt;br&gt;&lt;u&gt;A.1.4.2.F&lt;/u&gt;" style="strokeWidth=2;html=1;shape=label;whiteSpace=wrap;fillColor=default;strokeColor=default;rounded=0;fontStyle=1;" parent="1" vertex="1">
          <mxGeometry x="1850" y="315" width="200" height="60" as="geometry" />
        </mxCell>
        <mxCell id="YE8LFlgy794ClRxsJW_e-31" style="edgeStyle=orthogonalEdgeStyle;rounded=0;orthogonalLoop=1;jettySize=auto;html=1;exitX=1;exitY=0.5;exitDx=0;exitDy=0;entryX=0;entryY=0.5;entryDx=0;entryDy=0;entryPerimeter=0;strokeColor=#00CC00;strokeWidth=2;fontStyle=1;" parent="1" source="YE8LFlgy794ClRxsJW_e-30" target="YE8LFlgy794ClRxsJW_e-26" edge="1">
          <mxGeometry relative="1" as="geometry" />
        </mxCell>
        <mxCell id="YE8LFlgy794ClRxsJW_e-30" value="DOWNLOAD APPLICATION WITH FILLED DETAILS" style="rounded=0;whiteSpace=wrap;html=1;strokeWidth=2;fontStyle=1" parent="1" vertex="1">
          <mxGeometry x="1470" y="315" width="120" height="60" as="geometry" />
        </mxCell>
        <mxCell id="zc2iOCzZUR6AQ1SUMBFo-28" value="PUBLIC NETWORK&lt;br style=&quot;border-color: var(--border-color);&quot;&gt;SYSTEMS (CLIENT)" style="text;html=1;align=center;verticalAlign=middle;resizable=0;points=[];autosize=1;strokeColor=none;fillColor=none;fontStyle=1;fontSize=25;strokeWidth=2;horizontal=0;" parent="1" vertex="1">
          <mxGeometry x="200" y="667" width="70" height="190" as="geometry" />
        </mxCell>
        <mxCell id="zc2iOCzZUR6AQ1SUMBFo-31" value="PRIVATE NETWORK SYSTEMS (SERVER)" style="text;html=1;align=center;verticalAlign=middle;resizable=0;points=[];autosize=1;strokeColor=none;fillColor=none;fontStyle=1;fontSize=25;strokeWidth=2;horizontal=0;" parent="1" vertex="1">
          <mxGeometry x="210" y="939.75" width="50" height="510" as="geometry" />
        </mxCell>
        <mxCell id="zc2iOCzZUR6AQ1SUMBFo-32" value="&lt;font style=&quot;font-size: 14px;&quot;&gt;PUBLIC NETWORK&lt;/font&gt;" style="swimlane;whiteSpace=wrap;html=1;" parent="1" vertex="1">
          <mxGeometry x="2190" y="880" width="200" height="167" as="geometry" />
        </mxCell>
        <mxCell id="zc2iOCzZUR6AQ1SUMBFo-33" value="DNS SERVERS" style="text;html=1;strokeColor=none;fillColor=none;align=center;verticalAlign=middle;whiteSpace=wrap;rounded=0;fontSize=14;" parent="zc2iOCzZUR6AQ1SUMBFo-32" vertex="1">
          <mxGeometry y="27" width="200" height="28" as="geometry" />
        </mxCell>
        <mxCell id="zc2iOCzZUR6AQ1SUMBFo-34" value="FTP SERVERS" style="text;html=1;strokeColor=none;fillColor=none;align=center;verticalAlign=middle;whiteSpace=wrap;rounded=0;fontSize=14;" parent="zc2iOCzZUR6AQ1SUMBFo-32" vertex="1">
          <mxGeometry y="55" width="200" height="28" as="geometry" />
        </mxCell>
        <mxCell id="zc2iOCzZUR6AQ1SUMBFo-35" value="MAIL SERVERS" style="text;html=1;strokeColor=none;fillColor=none;align=center;verticalAlign=middle;whiteSpace=wrap;rounded=0;fontSize=14;" parent="zc2iOCzZUR6AQ1SUMBFo-32" vertex="1">
          <mxGeometry y="83" width="200" height="28" as="geometry" />
        </mxCell>
        <mxCell id="zc2iOCzZUR6AQ1SUMBFo-36" value="PROXY SERVERS" style="text;html=1;strokeColor=none;fillColor=none;align=center;verticalAlign=middle;whiteSpace=wrap;rounded=0;fontSize=14;" parent="zc2iOCzZUR6AQ1SUMBFo-32" vertex="1">
          <mxGeometry y="111" width="200" height="28" as="geometry" />
        </mxCell>
        <mxCell id="zc2iOCzZUR6AQ1SUMBFo-37" value="WEB SERVERS" style="text;html=1;strokeColor=none;fillColor=none;align=center;verticalAlign=middle;whiteSpace=wrap;rounded=0;fontSize=14;" parent="zc2iOCzZUR6AQ1SUMBFo-32" vertex="1">
          <mxGeometry y="139" width="200" height="28" as="geometry" />
        </mxCell>
        <mxCell id="zc2iOCzZUR6AQ1SUMBFo-51" value="USER" style="shape=umlActor;verticalLabelPosition=bottom;verticalAlign=top;html=1;outlineConnect=0;fontStyle=1" parent="1" vertex="1">
          <mxGeometry x="250" y="363" width="30" height="60" as="geometry" />
        </mxCell>
        <mxCell id="zc2iOCzZUR6AQ1SUMBFo-119" value="" style="group" parent="1" vertex="1" connectable="0">
          <mxGeometry x="635" y="779.5" width="150" height="78" as="geometry" />
        </mxCell>
        <mxCell id="zc2iOCzZUR6AQ1SUMBFo-120" value="MASK &amp;amp; ENCRYPT APPLICATION DETAILS&amp;nbsp;" style="rounded=0;whiteSpace=wrap;html=1;fontStyle=1;strokeWidth=2;" parent="zc2iOCzZUR6AQ1SUMBFo-119" vertex="1">
          <mxGeometry x="30" y="9" width="120" height="60" as="geometry" />
        </mxCell>
        <mxCell id="zc2iOCzZUR6AQ1SUMBFo-121" value="CA" style="ellipse;whiteSpace=wrap;html=1;fillColor=#dae8fc;strokeColor=#6c8ebf;gradientColor=#7ea6e0;fontStyle=1" parent="zc2iOCzZUR6AQ1SUMBFo-119" vertex="1">
          <mxGeometry y="52" width="30" height="26" as="geometry" />
        </mxCell>
        <mxCell id="zc2iOCzZUR6AQ1SUMBFo-122" value="HSM" style="ellipse;whiteSpace=wrap;html=1;fillColor=#dae8fc;strokeColor=#6c8ebf;gradientColor=#7ea6e0;fontStyle=1" parent="zc2iOCzZUR6AQ1SUMBFo-119" vertex="1">
          <mxGeometry y="26" width="30" height="26" as="geometry" />
        </mxCell>
        <mxCell id="zc2iOCzZUR6AQ1SUMBFo-123" value="KM" style="ellipse;whiteSpace=wrap;html=1;fillColor=#dae8fc;strokeColor=#6c8ebf;gradientColor=#7ea6e0;fontStyle=1" parent="zc2iOCzZUR6AQ1SUMBFo-119" vertex="1">
          <mxGeometry width="30" height="26" as="geometry" />
        </mxCell>
        <mxCell id="zc2iOCzZUR6AQ1SUMBFo-124" value="RESET COUNTER" style="edgeStyle=orthogonalEdgeStyle;rounded=0;orthogonalLoop=1;jettySize=auto;html=1;exitX=0.5;exitY=1;exitDx=0;exitDy=0;entryX=0.5;entryY=0;entryDx=0;entryDy=0;strokeColor=#00CC00;strokeWidth=2;fontStyle=1;" parent="1" source="zc2iOCzZUR6AQ1SUMBFo-120" target="aIRI_vIsuFXnpEIf9x8U-7" edge="1">
          <mxGeometry x="0.6992" relative="1" as="geometry">
            <mxPoint y="-1" as="offset" />
            <Array as="points">
              <mxPoint x="725" y="870" />
              <mxPoint x="665" y="870" />
            </Array>
          </mxGeometry>
        </mxCell>
        <mxCell id="zc2iOCzZUR6AQ1SUMBFo-162" value="" style="edgeStyle=orthogonalEdgeStyle;rounded=0;orthogonalLoop=1;jettySize=auto;html=1;strokeColor=#00CC00;fontStyle=1;strokeWidth=2;" parent="1" source="zc2iOCzZUR6AQ1SUMBFo-163" target="zc2iOCzZUR6AQ1SUMBFo-164" edge="1">
          <mxGeometry relative="1" as="geometry" />
        </mxCell>
        <mxCell id="zc2iOCzZUR6AQ1SUMBFo-163" value="LOGS THE PROCESS AND STATUS" style="rounded=0;whiteSpace=wrap;html=1;fontStyle=1;strokeWidth=2;shape=label;boundedLbl=1;backgroundOutline=1;size=15;" parent="1" vertex="1">
          <mxGeometry x="2027" y="1060" width="120" height="55" as="geometry" />
        </mxCell>
        <mxCell id="zc2iOCzZUR6AQ1SUMBFo-164" value="&lt;b&gt;END&lt;/b&gt;" style="strokeWidth=2;html=1;shape=mxgraph.flowchart.terminator;whiteSpace=wrap;fillColor=#f8cecc;strokeColor=#b85450;" parent="1" vertex="1">
          <mxGeometry x="2037" y="1144" width="100" height="40" as="geometry" />
        </mxCell>
        <mxCell id="zc2iOCzZUR6AQ1SUMBFo-180" value="IDA" style="ellipse;whiteSpace=wrap;html=1;fillColor=#dae8fc;strokeColor=#6c8ebf;gradientColor=#7ea6e0;fontStyle=1" parent="1" vertex="1">
          <mxGeometry x="2027" y="1033" width="30" height="26" as="geometry" />
        </mxCell>
        <mxCell id="zc2iOCzZUR6AQ1SUMBFo-236" style="edgeStyle=orthogonalEdgeStyle;rounded=0;orthogonalLoop=1;jettySize=auto;html=1;exitX=1;exitY=0.5;exitDx=0;exitDy=0;entryX=1;entryY=0.5;entryDx=0;entryDy=0;fontSize=11;verticalAlign=middle;strokeColor=#00CC00;strokeWidth=2;fontStyle=1;" parent="1" source="zc2iOCzZUR6AQ1SUMBFo-233" target="YE8LFlgy794ClRxsJW_e-21" edge="1">
          <mxGeometry relative="1" as="geometry">
            <Array as="points">
              <mxPoint x="825" y="1305" />
              <mxPoint x="825" y="356" />
            </Array>
          </mxGeometry>
        </mxCell>
        <mxCell id="zc2iOCzZUR6AQ1SUMBFo-233" value="IF RETRY &lt;br&gt;COUNT &amp;lt;=3" style="rhombus;whiteSpace=wrap;html=1;fontStyle=1;strokeWidth=2;fontSize=11;" parent="1" vertex="1">
          <mxGeometry x="695" y="1260" width="110" height="90" as="geometry" />
        </mxCell>
        <mxCell id="dKHz5RWR_iEwQu42fwz3-1" style="edgeStyle=orthogonalEdgeStyle;rounded=0;orthogonalLoop=1;jettySize=auto;html=1;entryX=0.5;entryY=0;entryDx=0;entryDy=0;fontSize=13;strokeColor=#FF0000;strokeWidth=2;fontStyle=1;" parent="1" target="zc2iOCzZUR6AQ1SUMBFo-233" edge="1">
          <mxGeometry relative="1" as="geometry">
            <mxPoint x="750" y="1210" as="sourcePoint" />
          </mxGeometry>
        </mxCell>
        <mxCell id="zc2iOCzZUR6AQ1SUMBFo-234" value="EXCEPTION AND ERROR HANDLING (COUNTER)" style="rounded=0;whiteSpace=wrap;html=1;fontStyle=1;strokeWidth=2;fontSize=11;shape=label;boundedLbl=1;backgroundOutline=1;size=9.769240159254764;" parent="1" vertex="1">
          <mxGeometry x="595" y="1179.75" width="200" height="30" as="geometry" />
        </mxCell>
        <mxCell id="zc2iOCzZUR6AQ1SUMBFo-245" value="" style="group" parent="1" vertex="1" connectable="0">
          <mxGeometry x="920" y="782.5" width="150" height="78" as="geometry" />
        </mxCell>
        <mxCell id="zc2iOCzZUR6AQ1SUMBFo-246" value="MASK &amp;amp; ENCRYPT UPLOADED FILE" style="rounded=0;whiteSpace=wrap;html=1;fontStyle=1;strokeWidth=2;" parent="zc2iOCzZUR6AQ1SUMBFo-245" vertex="1">
          <mxGeometry x="30" y="9" width="120" height="60" as="geometry" />
        </mxCell>
        <mxCell id="zc2iOCzZUR6AQ1SUMBFo-247" value="CA" style="ellipse;whiteSpace=wrap;html=1;fillColor=#dae8fc;strokeColor=#6c8ebf;gradientColor=#7ea6e0;fontStyle=1" parent="zc2iOCzZUR6AQ1SUMBFo-245" vertex="1">
          <mxGeometry y="52" width="30" height="26" as="geometry" />
        </mxCell>
        <mxCell id="zc2iOCzZUR6AQ1SUMBFo-248" value="HSM" style="ellipse;whiteSpace=wrap;html=1;fillColor=#dae8fc;strokeColor=#6c8ebf;gradientColor=#7ea6e0;fontStyle=1" parent="zc2iOCzZUR6AQ1SUMBFo-245" vertex="1">
          <mxGeometry y="26" width="30" height="26" as="geometry" />
        </mxCell>
        <mxCell id="zc2iOCzZUR6AQ1SUMBFo-249" value="KM" style="ellipse;whiteSpace=wrap;html=1;fillColor=#dae8fc;strokeColor=#6c8ebf;gradientColor=#7ea6e0;fontStyle=1" parent="zc2iOCzZUR6AQ1SUMBFo-245" vertex="1">
          <mxGeometry width="30" height="26" as="geometry" />
        </mxCell>
        <mxCell id="zc2iOCzZUR6AQ1SUMBFo-208" value="IDA" style="ellipse;whiteSpace=wrap;html=1;fillColor=#dae8fc;strokeColor=#6c8ebf;gradientColor=#7ea6e0;fontStyle=1" parent="1" vertex="1">
          <mxGeometry x="995" y="1223.75" width="30" height="26" as="geometry" />
        </mxCell>
        <mxCell id="zc2iOCzZUR6AQ1SUMBFo-178" value="KM" style="ellipse;whiteSpace=wrap;html=1;fillColor=#dae8fc;strokeColor=#6c8ebf;gradientColor=#7ea6e0;fontStyle=1" parent="1" vertex="1">
          <mxGeometry x="965" y="1249.75" width="30" height="26" as="geometry" />
        </mxCell>
        <mxCell id="zc2iOCzZUR6AQ1SUMBFo-177" value="HSM" style="ellipse;whiteSpace=wrap;html=1;fillColor=#dae8fc;strokeColor=#6c8ebf;gradientColor=#7ea6e0;fontStyle=1" parent="1" vertex="1">
          <mxGeometry x="965" y="1305" width="30" height="26" as="geometry" />
        </mxCell>
        <mxCell id="zc2iOCzZUR6AQ1SUMBFo-261" style="edgeStyle=orthogonalEdgeStyle;rounded=0;orthogonalLoop=1;jettySize=auto;html=1;exitX=1;exitY=0.5;exitDx=0;exitDy=0;entryX=0.75;entryY=1;entryDx=0;entryDy=0;strokeColor=#00CC00;strokeWidth=2;fontStyle=1;" parent="1" source="zc2iOCzZUR6AQ1SUMBFo-259" target="aIRI_vIsuFXnpEIf9x8U-28" edge="1">
          <mxGeometry relative="1" as="geometry">
            <Array as="points">
              <mxPoint x="1490" y="1295" />
              <mxPoint x="1490" y="560" />
              <mxPoint x="1398" y="560" />
            </Array>
          </mxGeometry>
        </mxCell>
        <mxCell id="zc2iOCzZUR6AQ1SUMBFo-262" style="edgeStyle=orthogonalEdgeStyle;rounded=0;orthogonalLoop=1;jettySize=auto;html=1;exitX=0.5;exitY=1;exitDx=0;exitDy=0;entryX=0.5;entryY=1;entryDx=0;entryDy=0;strokeColor=#FF0000;strokeWidth=2;fontStyle=1;" parent="1" source="zc2iOCzZUR6AQ1SUMBFo-259" target="YE8LFlgy794ClRxsJW_e-30" edge="1">
          <mxGeometry relative="1" as="geometry">
            <Array as="points">
              <mxPoint x="1405" y="1350" />
              <mxPoint x="1530" y="1350" />
            </Array>
          </mxGeometry>
        </mxCell>
        <mxCell id="zc2iOCzZUR6AQ1SUMBFo-282" style="edgeStyle=orthogonalEdgeStyle;rounded=0;orthogonalLoop=1;jettySize=auto;html=1;exitX=0;exitY=0.5;exitDx=0;exitDy=0;entryX=1;entryY=0.25;entryDx=0;entryDy=0;fontSize=11;verticalAlign=middle;strokeColor=#00CC00;strokeWidth=2;fontStyle=1;startArrow=classic;startFill=1;jumpStyle=arc;jumpSize=12;" parent="1" source="zc2iOCzZUR6AQ1SUMBFo-259" target="aIRI_vIsuFXnpEIf9x8U-22" edge="1">
          <mxGeometry relative="1" as="geometry">
            <Array as="points">
              <mxPoint x="1290" y="1295" />
              <mxPoint x="1290" y="670" />
              <mxPoint x="1110" y="670" />
              <mxPoint x="1110" y="516" />
            </Array>
          </mxGeometry>
        </mxCell>
        <mxCell id="zc2iOCzZUR6AQ1SUMBFo-259" value="IF RETRY &lt;br&gt;COUNT &amp;lt;=3" style="rhombus;whiteSpace=wrap;html=1;fontStyle=1;strokeWidth=2;fontSize=11;" parent="1" vertex="1">
          <mxGeometry x="1344.5" y="1249.75" width="110" height="90" as="geometry" />
        </mxCell>
        <mxCell id="zc2iOCzZUR6AQ1SUMBFo-263" style="edgeStyle=orthogonalEdgeStyle;rounded=0;orthogonalLoop=1;jettySize=auto;html=1;exitX=0.5;exitY=1;exitDx=0;exitDy=0;entryX=0;entryY=0.5;entryDx=0;entryDy=0;entryPerimeter=0;strokeColor=#FF0000;strokeWidth=2;fontStyle=1;" parent="1" source="zc2iOCzZUR6AQ1SUMBFo-233" target="YE8LFlgy794ClRxsJW_e-9" edge="1">
          <mxGeometry relative="1" as="geometry" />
        </mxCell>
        <mxCell id="zc2iOCzZUR6AQ1SUMBFo-278" value="RESET COUNTER" style="edgeStyle=orthogonalEdgeStyle;rounded=0;orthogonalLoop=1;jettySize=auto;html=1;exitX=1;exitY=0.5;exitDx=0;exitDy=0;entryX=0;entryY=0.5;entryDx=0;entryDy=0;strokeColor=#00CC00;strokeWidth=2;fontStyle=1;" parent="1" source="zc2iOCzZUR6AQ1SUMBFo-264" target="aIRI_vIsuFXnpEIf9x8U-30" edge="1">
          <mxGeometry x="-0.7997" relative="1" as="geometry">
            <mxPoint as="offset" />
          </mxGeometry>
        </mxCell>
        <mxCell id="zc2iOCzZUR6AQ1SUMBFo-264" value="IF &lt;br&gt;LIVENESS DETECTION SUCCESS" style="rounded=0;whiteSpace=wrap;html=1;strokeWidth=2;fontStyle=1;shape=rhombus;perimeter=rhombusPerimeter;" parent="1" vertex="1">
          <mxGeometry x="1560" y="1033" width="110" height="100" as="geometry" />
        </mxCell>
        <mxCell id="dKHz5RWR_iEwQu42fwz3-3" style="edgeStyle=orthogonalEdgeStyle;rounded=0;orthogonalLoop=1;jettySize=auto;html=1;exitX=0.5;exitY=1;exitDx=0;exitDy=0;entryX=0.5;entryY=0;entryDx=0;entryDy=0;fontSize=13;strokeColor=#FF0000;strokeWidth=2;fontStyle=1;" parent="1" source="zc2iOCzZUR6AQ1SUMBFo-255" target="zc2iOCzZUR6AQ1SUMBFo-259" edge="1">
          <mxGeometry relative="1" as="geometry" />
        </mxCell>
        <mxCell id="zc2iOCzZUR6AQ1SUMBFo-255" value="EXCEPTION AND ERROR HANDLING (COUNTER)" style="rounded=0;whiteSpace=wrap;html=1;fontStyle=1;strokeWidth=2;fontSize=11;shape=label;boundedLbl=1;backgroundOutline=1;size=9.769240159254764;" parent="1" vertex="1">
          <mxGeometry x="1320" y="1169.5" width="159" height="30" as="geometry" />
        </mxCell>
        <mxCell id="zc2iOCzZUR6AQ1SUMBFo-107" value="" style="group" parent="1" vertex="1" connectable="0">
          <mxGeometry x="200" y="580" width="1960" height="60" as="geometry" />
        </mxCell>
        <mxCell id="zc2iOCzZUR6AQ1SUMBFo-108" value="" style="group" parent="zc2iOCzZUR6AQ1SUMBFo-107" vertex="1" connectable="0">
          <mxGeometry y="20" width="1960" height="40" as="geometry" />
        </mxCell>
        <mxCell id="zc2iOCzZUR6AQ1SUMBFo-109" value="&lt;b&gt;SINGLE/ DUAL FIREWALL&lt;/b&gt;" style="shape=label;whiteSpace=wrap;html=1;boundedLbl=1;backgroundOutline=1;darkOpacity=0.05;darkOpacity2=0.1;fillColor=#e51400;fontColor=#ffffff;strokeColor=#B20000;rounded=0;" parent="zc2iOCzZUR6AQ1SUMBFo-108" vertex="1">
          <mxGeometry width="1960" height="20" as="geometry" />
        </mxCell>
        <mxCell id="zc2iOCzZUR6AQ1SUMBFo-110" value="&lt;b&gt;IDS, IPS, HONEYPOT&lt;/b&gt;" style="shape=label;whiteSpace=wrap;html=1;boundedLbl=1;backgroundOutline=1;darkOpacity=0.05;darkOpacity2=0.1;fillColor=#f0a30a;strokeColor=#BD7000;rounded=0;fontColor=#000000;" parent="zc2iOCzZUR6AQ1SUMBFo-108" vertex="1">
          <mxGeometry y="20" width="1960" height="20" as="geometry" />
        </mxCell>
        <mxCell id="zc2iOCzZUR6AQ1SUMBFo-111" value="API/ HTTPS (SSL/TLS)" style="shape=label;whiteSpace=wrap;html=1;boundedLbl=1;backgroundOutline=1;darkOpacity=0.05;darkOpacity2=0.1;fillColor=#f8cecc;strokeColor=#b85450;rounded=0;fontStyle=1" parent="zc2iOCzZUR6AQ1SUMBFo-107" vertex="1">
          <mxGeometry width="1960" height="20" as="geometry" />
        </mxCell>
        <mxCell id="zc2iOCzZUR6AQ1SUMBFo-280" value="NOTIFICATION GENERATOR" style="rounded=0;whiteSpace=wrap;html=1;fontStyle=1;strokeWidth=2;fontSize=11;fillColor=default;strokeColor=default;" parent="1" vertex="1">
          <mxGeometry x="1872.75" y="963" width="147.25" height="37" as="geometry" />
        </mxCell>
        <mxCell id="zc2iOCzZUR6AQ1SUMBFo-281" value="NOTIFICATION GENERATOR" style="rounded=0;whiteSpace=wrap;html=1;fontStyle=1;strokeWidth=2;fontSize=11;fillColor=default;strokeColor=default;" parent="1" vertex="1">
          <mxGeometry x="1650" y="963" width="94.5" height="37" as="geometry" />
        </mxCell>
        <mxCell id="zc2iOCzZUR6AQ1SUMBFo-285" style="edgeStyle=orthogonalEdgeStyle;rounded=0;orthogonalLoop=1;jettySize=auto;html=1;exitX=1;exitY=0.5;exitDx=0;exitDy=0;strokeColor=#00CC00;strokeWidth=2;fontStyle=1;" parent="1" source="zc2iOCzZUR6AQ1SUMBFo-283" target="zc2iOCzZUR6AQ1SUMBFo-163" edge="1">
          <mxGeometry relative="1" as="geometry" />
        </mxCell>
        <mxCell id="zc2iOCzZUR6AQ1SUMBFo-283" value="RECEIVE APPLICATION FAILURE NOTIFICATION ON EMAIL AND PHONE" style="rounded=0;whiteSpace=wrap;html=1;strokeWidth=2;fontStyle=1" parent="1" vertex="1">
          <mxGeometry x="1912.5" y="404" width="155" height="60" as="geometry" />
        </mxCell>
        <mxCell id="zc2iOCzZUR6AQ1SUMBFo-287" value="&lt;div style=&quot;text-align: left; font-size: 13px;&quot;&gt;&lt;br&gt;&lt;/div&gt;" style="text;html=1;align=center;verticalAlign=middle;resizable=0;points=[];autosize=1;strokeColor=none;fillColor=none;spacing=0;" parent="1" vertex="1">
          <mxGeometry x="360" y="1628" width="20" height="30" as="geometry" />
        </mxCell>
        <mxCell id="zc2iOCzZUR6AQ1SUMBFo-288" value="&lt;div style=&quot;font-size: 13px;&quot;&gt;&lt;b style=&quot;font-size: 13px;&quot;&gt;*SUPPORTING DOCUMENTS&lt;/b&gt;&lt;/div&gt;&lt;div style=&quot;font-size: 13px;&quot;&gt;-Two pieces of SUPERIOR evidence&lt;/div&gt;&lt;div style=&quot;font-size: 13px;&quot;&gt;(OR)&lt;/div&gt;&lt;div style=&quot;font-size: 13px;&quot;&gt;One piece of SUPERIOR evidence and one piece of STRONG evidence depending on strength of original proof and validation occurs with issuing source&lt;/div&gt;&lt;div style=&quot;font-size: 13px;&quot;&gt;(OR)&lt;/div&gt;&lt;div style=&quot;font-size: 13px;&quot;&gt;Two piece of STRONG evidence plus one piece of FAIR evidence.&lt;/div&gt;&lt;div style=&quot;font-size: 13px;&quot;&gt;&lt;b&gt;**IMAGE QUALITY&lt;/b&gt;&lt;/div&gt;&lt;div style=&quot;font-size: 13px;&quot;&gt;&lt;span style=&quot;background-color: rgb(255, 255, 255); font-family: sans-serif; font-size: medium;&quot;&gt;Resolution, at least 300 dpi.&lt;/span&gt;&lt;/div&gt;&lt;div style=&quot;font-size: 13px;&quot;&gt;&lt;span style=&quot;background-color: rgb(255, 255, 255); font-family: sans-serif; font-size: medium;&quot;&gt;Minimal compression (lossless compression, or lossy compression with minimal artifacts)&lt;/span&gt;&lt;/div&gt;&lt;div style=&quot;font-size: 13px;&quot;&gt;&lt;span style=&quot;background-color: rgb(255, 255, 255); font-family: sans-serif; font-size: medium;&quot;&gt;Absence of image noise such as glare, lighting and blur, , unless the lab purposely includes this as part of Document Fraud Attack.&lt;/span&gt;&lt;/div&gt;&lt;div style=&quot;font-size: 13px;&quot;&gt;&lt;span style=&quot;background-color: rgb(255, 255, 255); font-family: sans-serif; font-size: medium;&quot;&gt;Consistent cropping&lt;/span&gt;&lt;/div&gt;&lt;div style=&quot;font-size: 13px;&quot;&gt;&lt;span style=&quot;background-color: rgb(255, 255, 255); font-family: sans-serif; font-size: medium;&quot;&gt;Absence of visual obstruction&lt;/span&gt;&lt;/div&gt;" style="text;html=1;align=left;verticalAlign=middle;resizable=0;points=[];autosize=1;strokeColor=none;fillColor=none;fontSize=13;" parent="1" vertex="1">
          <mxGeometry x="200" y="1460" width="940" height="220" as="geometry" />
        </mxCell>
        <mxCell id="PJvUeSAeTlyVw3btK51f-1" value="NOTIFICATION GENERATOR" style="rounded=0;whiteSpace=wrap;html=1;fontStyle=1;strokeWidth=2;fontSize=11;fillColor=default;strokeColor=default;" parent="1" vertex="1">
          <mxGeometry x="785" y="1227.25" width="94.5" height="37" as="geometry" />
        </mxCell>
        <mxCell id="PJvUeSAeTlyVw3btK51f-2" value="&lt;font style=&quot;font-size: 14px;&quot;&gt;LEGEND&lt;/font&gt;" style="swimlane;whiteSpace=wrap;html=1;" parent="1" vertex="1">
          <mxGeometry x="2190" y="250" width="200" height="290" as="geometry" />
        </mxCell>
        <mxCell id="PJvUeSAeTlyVw3btK51f-3" value="KM" style="ellipse;whiteSpace=wrap;html=1;fillColor=#dae8fc;strokeColor=#6c8ebf;gradientColor=#7ea6e0;fontStyle=1" parent="PJvUeSAeTlyVw3btK51f-2" vertex="1">
          <mxGeometry x="10" y="30" width="30" height="26" as="geometry" />
        </mxCell>
        <mxCell id="PJvUeSAeTlyVw3btK51f-4" value="IDA" style="ellipse;whiteSpace=wrap;html=1;fillColor=#dae8fc;strokeColor=#6c8ebf;gradientColor=#7ea6e0;fontStyle=1" parent="PJvUeSAeTlyVw3btK51f-2" vertex="1">
          <mxGeometry x="10" y="131" width="30" height="26" as="geometry" />
        </mxCell>
        <mxCell id="PJvUeSAeTlyVw3btK51f-5" value="HSM" style="ellipse;whiteSpace=wrap;html=1;fillColor=#dae8fc;strokeColor=#6c8ebf;gradientColor=#7ea6e0;fontStyle=1" parent="PJvUeSAeTlyVw3btK51f-2" vertex="1">
          <mxGeometry x="10" y="91" width="30" height="26" as="geometry" />
        </mxCell>
        <mxCell id="PJvUeSAeTlyVw3btK51f-6" value="KR" style="ellipse;whiteSpace=wrap;html=1;fillColor=#dae8fc;strokeColor=#6c8ebf;gradientColor=#7ea6e0;fontStyle=1" parent="PJvUeSAeTlyVw3btK51f-2" vertex="1">
          <mxGeometry x="10" y="59" width="30" height="26" as="geometry" />
        </mxCell>
        <mxCell id="PJvUeSAeTlyVw3btK51f-7" value="Key Manager" style="text;html=1;strokeColor=none;fillColor=none;align=center;verticalAlign=middle;whiteSpace=wrap;rounded=0;fontSize=14;" parent="PJvUeSAeTlyVw3btK51f-2" vertex="1">
          <mxGeometry x="40" y="30" width="160" height="28" as="geometry" />
        </mxCell>
        <mxCell id="PJvUeSAeTlyVw3btK51f-8" value="Key Revocation" style="text;html=1;strokeColor=none;fillColor=none;align=center;verticalAlign=middle;whiteSpace=wrap;rounded=0;fontSize=14;" parent="PJvUeSAeTlyVw3btK51f-2" vertex="1">
          <mxGeometry x="40" y="58" width="160" height="28" as="geometry" />
        </mxCell>
        <mxCell id="PJvUeSAeTlyVw3btK51f-9" value="Hardware Security Module" style="text;html=1;strokeColor=none;fillColor=none;align=center;verticalAlign=middle;whiteSpace=wrap;rounded=0;fontSize=14;" parent="PJvUeSAeTlyVw3btK51f-2" vertex="1">
          <mxGeometry x="40" y="90" width="160" height="28" as="geometry" />
        </mxCell>
        <mxCell id="PJvUeSAeTlyVw3btK51f-10" value="ID Authentication (DB)" style="text;html=1;strokeColor=none;fillColor=none;align=center;verticalAlign=middle;whiteSpace=wrap;rounded=0;fontSize=14;" parent="PJvUeSAeTlyVw3btK51f-2" vertex="1">
          <mxGeometry x="40" y="130" width="160" height="28" as="geometry" />
        </mxCell>
        <mxCell id="PJvUeSAeTlyVw3btK51f-11" value="AC" style="ellipse;whiteSpace=wrap;html=1;fillColor=#dae8fc;strokeColor=#6c8ebf;gradientColor=#7ea6e0;fontStyle=1" parent="PJvUeSAeTlyVw3btK51f-2" vertex="1">
          <mxGeometry x="10" y="161" width="30" height="26" as="geometry" />
        </mxCell>
        <mxCell id="PJvUeSAeTlyVw3btK51f-12" value="Access Control" style="text;html=1;strokeColor=none;fillColor=none;align=center;verticalAlign=middle;whiteSpace=wrap;rounded=0;fontSize=14;" parent="PJvUeSAeTlyVw3btK51f-2" vertex="1">
          <mxGeometry x="40" y="160" width="160" height="28" as="geometry" />
        </mxCell>
        <mxCell id="PJvUeSAeTlyVw3btK51f-13" value="Certificate Authority" style="text;html=1;strokeColor=none;fillColor=none;align=center;verticalAlign=middle;whiteSpace=wrap;rounded=0;fontSize=14;" parent="PJvUeSAeTlyVw3btK51f-2" vertex="1">
          <mxGeometry x="40" y="190" width="160" height="28" as="geometry" />
        </mxCell>
        <mxCell id="PJvUeSAeTlyVw3btK51f-14" value="CA" style="ellipse;whiteSpace=wrap;html=1;fillColor=#dae8fc;strokeColor=#6c8ebf;gradientColor=#7ea6e0;fontStyle=1" parent="PJvUeSAeTlyVw3btK51f-2" vertex="1">
          <mxGeometry x="10" y="191" width="30" height="26" as="geometry" />
        </mxCell>
        <mxCell id="PJvUeSAeTlyVw3btK51f-15" value="POI" style="text;html=1;align=center;verticalAlign=middle;resizable=0;points=[];autosize=1;strokeColor=none;fillColor=none;fontSize=14;rounded=0;" parent="PJvUeSAeTlyVw3btK51f-2" vertex="1">
          <mxGeometry x="5" y="230" width="40" height="30" as="geometry" />
        </mxCell>
        <mxCell id="PJvUeSAeTlyVw3btK51f-16" value="POA" style="text;html=1;align=center;verticalAlign=middle;resizable=0;points=[];autosize=1;strokeColor=none;fillColor=none;fontSize=14;rounded=0;" parent="PJvUeSAeTlyVw3btK51f-2" vertex="1">
          <mxGeometry y="260" width="50" height="30" as="geometry" />
        </mxCell>
        <mxCell id="PJvUeSAeTlyVw3btK51f-18" value="Proof of Identity" style="text;html=1;align=center;verticalAlign=middle;resizable=0;points=[];autosize=1;strokeColor=none;fillColor=none;fontSize=14;rounded=0;" parent="PJvUeSAeTlyVw3btK51f-2" vertex="1">
          <mxGeometry x="60" y="230" width="110" height="30" as="geometry" />
        </mxCell>
        <mxCell id="PJvUeSAeTlyVw3btK51f-19" value="Proof of Address" style="text;html=1;align=center;verticalAlign=middle;resizable=0;points=[];autosize=1;strokeColor=none;fillColor=none;fontSize=14;rounded=0;" parent="PJvUeSAeTlyVw3btK51f-2" vertex="1">
          <mxGeometry x="60" y="260" width="110" height="30" as="geometry" />
        </mxCell>
        <mxCell id="YE8LFlgy794ClRxsJW_e-5" value="STORE IN RID ACCOUNT IN DATABASE&lt;br style=&quot;border-color: var(--border-color);&quot;&gt;&lt;span style=&quot;&quot;&gt;----------------------&lt;/span&gt;&lt;br style=&quot;border-color: var(--border-color);&quot;&gt;&lt;span style=&quot;&quot;&gt;WITH ENCRYPTION &amp;amp; HASHING&lt;/span&gt;" style="shape=label;whiteSpace=wrap;html=1;boundedLbl=1;backgroundOutline=1;size=15;fontStyle=1;rounded=0;strokeWidth=2;" parent="1" vertex="1">
          <mxGeometry x="995" y="1251" width="180" height="80" as="geometry" />
        </mxCell>
        <mxCell id="zc2iOCzZUR6AQ1SUMBFo-238" value="&lt;span style=&quot;color: rgb(0, 0, 0); font-family: Helvetica; font-size: 11px; font-style: normal; font-variant-ligatures: normal; font-variant-caps: normal; font-weight: 700; letter-spacing: normal; orphans: 2; text-align: center; text-indent: 0px; text-transform: none; widows: 2; word-spacing: 0px; -webkit-text-stroke-width: 0px; background-color: rgb(255, 255, 255); text-decoration-thickness: initial; text-decoration-style: initial; text-decoration-color: initial; float: none; display: inline !important;&quot;&gt;RESET COUNTER&lt;/span&gt;" style="edgeStyle=orthogonalEdgeStyle;rounded=0;orthogonalLoop=1;jettySize=auto;html=1;exitX=1;exitY=0.5;exitDx=0;exitDy=0;entryX=0.5;entryY=1;entryDx=0;entryDy=0;strokeColor=#00CC00;strokeWidth=2;fontStyle=1;jumpStyle=arc;jumpSize=12;" parent="1" source="aIRI_vIsuFXnpEIf9x8U-7" target="aIRI_vIsuFXnpEIf9x8U-21" edge="1">
          <mxGeometry x="0.4671" y="-8" relative="1" as="geometry">
            <mxPoint as="offset" />
          </mxGeometry>
        </mxCell>
        <mxCell id="zc2iOCzZUR6AQ1SUMBFo-251" style="edgeStyle=orthogonalEdgeStyle;rounded=0;orthogonalLoop=1;jettySize=auto;html=1;exitX=1;exitY=0.5;exitDx=0;exitDy=0;entryX=0.25;entryY=0;entryDx=0;entryDy=0;fontSize=13;verticalAlign=bottom;strokeColor=#FF0000;strokeWidth=2;fontStyle=1;jumpStyle=arc;jumpSize=12;" parent="1" source="aIRI_vIsuFXnpEIf9x8U-33" target="zc2iOCzZUR6AQ1SUMBFo-255" edge="1">
          <mxGeometry relative="1" as="geometry">
            <Array as="points">
              <mxPoint x="1120" y="703" />
              <mxPoint x="1120" y="1090" />
              <mxPoint x="1360" y="1090" />
            </Array>
          </mxGeometry>
        </mxCell>
        <mxCell id="zc2iOCzZUR6AQ1SUMBFo-265" style="edgeStyle=orthogonalEdgeStyle;rounded=0;orthogonalLoop=1;jettySize=auto;html=1;exitX=1;exitY=0.5;exitDx=0;exitDy=0;strokeColor=#00CC00;strokeWidth=2;fontStyle=1;jumpStyle=arc;jumpSize=12;" parent="1" source="YE8LFlgy794ClRxsJW_e-14" target="zc2iOCzZUR6AQ1SUMBFo-273" edge="1">
          <mxGeometry relative="1" as="geometry" />
        </mxCell>
        <mxCell id="zc2iOCzZUR6AQ1SUMBFo-277" style="edgeStyle=orthogonalEdgeStyle;rounded=0;orthogonalLoop=1;jettySize=auto;html=1;exitX=0;exitY=0.5;exitDx=0;exitDy=0;fontSize=13;verticalAlign=bottom;strokeColor=#FF0000;strokeWidth=2;fontStyle=1;entryX=0.75;entryY=0;entryDx=0;entryDy=0;jumpStyle=arc;jumpSize=12;" parent="1" source="zc2iOCzZUR6AQ1SUMBFo-264" target="zc2iOCzZUR6AQ1SUMBFo-255" edge="1">
          <mxGeometry relative="1" as="geometry">
            <Array as="points">
              <mxPoint x="1440" y="1083" />
              <mxPoint x="1440" y="1169" />
            </Array>
          </mxGeometry>
        </mxCell>
        <mxCell id="UAO9R_f0loXvIO0vCy_z-1" style="edgeStyle=orthogonalEdgeStyle;rounded=0;orthogonalLoop=1;jettySize=auto;html=1;exitX=0.5;exitY=1;exitDx=0;exitDy=0;entryX=0.5;entryY=0;entryDx=0;entryDy=0;strokeColor=#00CC00;strokeWidth=2;fontStyle=1;" parent="1" source="zc2iOCzZUR6AQ1SUMBFo-273" target="zc2iOCzZUR6AQ1SUMBFo-264" edge="1">
          <mxGeometry relative="1" as="geometry">
            <Array as="points">
              <mxPoint x="1625" y="850" />
              <mxPoint x="1615" y="850" />
            </Array>
          </mxGeometry>
        </mxCell>
        <mxCell id="zc2iOCzZUR6AQ1SUMBFo-272" value="" style="group" parent="1" vertex="1" connectable="0">
          <mxGeometry x="1535" y="783" width="150" height="78" as="geometry" />
        </mxCell>
        <mxCell id="zc2iOCzZUR6AQ1SUMBFo-274" value="CA" style="ellipse;whiteSpace=wrap;html=1;fillColor=#dae8fc;strokeColor=#6c8ebf;gradientColor=#7ea6e0;fontStyle=1" parent="zc2iOCzZUR6AQ1SUMBFo-272" vertex="1">
          <mxGeometry y="52" width="30" height="26" as="geometry" />
        </mxCell>
        <mxCell id="zc2iOCzZUR6AQ1SUMBFo-275" value="HSM" style="ellipse;whiteSpace=wrap;html=1;fillColor=#dae8fc;strokeColor=#6c8ebf;gradientColor=#7ea6e0;fontStyle=1" parent="zc2iOCzZUR6AQ1SUMBFo-272" vertex="1">
          <mxGeometry y="26" width="30" height="26" as="geometry" />
        </mxCell>
        <mxCell id="zc2iOCzZUR6AQ1SUMBFo-276" value="KM" style="ellipse;whiteSpace=wrap;html=1;fillColor=#dae8fc;strokeColor=#6c8ebf;gradientColor=#7ea6e0;fontStyle=1" parent="zc2iOCzZUR6AQ1SUMBFo-272" vertex="1">
          <mxGeometry width="30" height="26" as="geometry" />
        </mxCell>
        <mxCell id="zc2iOCzZUR6AQ1SUMBFo-273" value="MASK &amp;amp; ENCRYPT IMAGE FILE" style="rounded=0;whiteSpace=wrap;html=1;fontStyle=1;strokeWidth=2;" parent="zc2iOCzZUR6AQ1SUMBFo-272" vertex="1">
          <mxGeometry x="30" y="9" width="120" height="60" as="geometry" />
        </mxCell>
        <mxCell id="zc2iOCzZUR6AQ1SUMBFo-114" value="" style="group" parent="1" vertex="1" connectable="0">
          <mxGeometry x="200" y="904" width="1960" height="60" as="geometry" />
        </mxCell>
        <mxCell id="zc2iOCzZUR6AQ1SUMBFo-115" value="" style="group" parent="zc2iOCzZUR6AQ1SUMBFo-114" vertex="1" connectable="0">
          <mxGeometry y="2" width="1960" height="40" as="geometry" />
        </mxCell>
        <mxCell id="zc2iOCzZUR6AQ1SUMBFo-116" value="&lt;b&gt;SINGLE/ DUAL FIREWALL&lt;/b&gt;" style="shape=label;whiteSpace=wrap;html=1;boundedLbl=1;backgroundOutline=1;darkOpacity=0.05;darkOpacity2=0.1;fillColor=#e51400;fontColor=#ffffff;strokeColor=#B20000;rounded=0;" parent="zc2iOCzZUR6AQ1SUMBFo-115" vertex="1">
          <mxGeometry width="1960" height="20" as="geometry" />
        </mxCell>
        <mxCell id="zc2iOCzZUR6AQ1SUMBFo-117" value="&lt;b&gt;IDS, IPS, HONEYPOT&lt;/b&gt;" style="shape=label;whiteSpace=wrap;html=1;boundedLbl=1;backgroundOutline=1;darkOpacity=0.05;darkOpacity2=0.1;fillColor=#f0a30a;strokeColor=#BD7000;rounded=0;fontColor=#000000;" parent="zc2iOCzZUR6AQ1SUMBFo-115" vertex="1">
          <mxGeometry y="20" width="1960" height="20" as="geometry" />
        </mxCell>
        <mxCell id="zc2iOCzZUR6AQ1SUMBFo-118" value="API/ HTTPS (SSL/TLS)" style="shape=label;whiteSpace=wrap;html=1;boundedLbl=1;backgroundOutline=1;darkOpacity=0.05;darkOpacity2=0.1;fillColor=#f8cecc;strokeColor=#b85450;rounded=0;fontStyle=1" parent="zc2iOCzZUR6AQ1SUMBFo-114" vertex="1">
          <mxGeometry y="-18" width="1960" height="20" as="geometry" />
        </mxCell>
        <mxCell id="UAO9R_f0loXvIO0vCy_z-3" value="AC" style="ellipse;whiteSpace=wrap;html=1;fillColor=#dae8fc;strokeColor=#6c8ebf;gradientColor=#7ea6e0;fontStyle=1" parent="1" vertex="1">
          <mxGeometry x="600" y="1007" width="30" height="26" as="geometry" />
        </mxCell>
        <mxCell id="AmydYxGCPG8IH94toudE-1" value="&lt;div style=&quot;font-size: 18px;&quot;&gt;&lt;font style=&quot;font-size: 18px;&quot;&gt;&lt;b style=&quot;font-size: 18px;&quot;&gt;Purpose:&lt;/b&gt;&lt;/font&gt;&lt;/div&gt;&lt;div style=&quot;font-size: 18px;&quot;&gt;The SOP depicts the process an individual must follow to apply online on their own behalf.&lt;/div&gt;&lt;div&gt;Steps might include filling out application forms, uploading documents, undergoing liveness checks, and receiving appointment confirmations or error messages.&lt;/div&gt;" style="whiteSpace=wrap;html=1;align=left;rounded=0;strokeWidth=2;verticalAlign=middle;fontFamily=Helvetica;fontSize=18;fontStyle=0;" vertex="1" parent="1">
          <mxGeometry x="170" y="120" width="2020" height="70" as="geometry" />
        </mxCell>
      </root>
    </mxGraphModel>
  </diagram>
</mxfile>
